/* XPM */
static const char * SDL_icon_xpm[] = {
"64 64 5 1",
" 	c None",
".	c #070707",
"+	c #EFEFEF",
"@	c #B76FB7",
"#	c #AFAFAF",
"                        ................                        ",
"                       .++++++++++++++++.                       ",
"                      .++++++++++++++++++.                      ",
"                     .+++++@@@@@@@@@@+++++.                     ",
"                     .+++++@@@@@@@@@@+++++.                     ",
"                     .+++++@@@@@@@@@@+++++.                     ",
"                     .+++++@@@@@@@@@@+++++.                     ",
"                     .+++++@@@@@@@@@@+++++.                     ",
"                     .+++++@@@@@@@@@@+++++.                     ",
"                     .+++++@@@@@@@@@@+++++.                     ",
"                     .+++++@@@@@@@@@@+++++.                     ",
"                     .+++++@@@@@@@@@@+++++.                     ",
"                     .+++++@@@@@@@@@@+++++.                     ",
"                     .+++++@@@@@@@@@@+++++.                     ",
"                     .+++++@@@@@@@@@@+++++.                     ",
"                     .+++++@@@@@@@@@@+++++.                     ",
"                     .+++++@@@@@@@@@@+++++.                     ",
"                     .+++++@@@@@@@@@@+++++.                     ",
"                     .+++++@@@@@@@@@@+++++.                     ",
"                     .++++++++++++++++++++.                     ",
"                     .++++++++++++++++++++.                     ",
"   ..................++++++++######++++++++..................   ",
"  .++++++++++++++++++++++++##++++++##++++++++++++++++++++++++.  ",
" .+++++++++++++++++++++++##++++++++++##+++++++++++++++++++++++. ",
".+++++++++++++++++++++++#+++++####+++++#+++++++++++++++++++++++.",
".++++++++++++++++++++++#++++##++++##++++#++++++++++++++++++++++.",
".++++++++++++++++++++++#+++#++++++++#+++#++++++++++++++++++++++.",
".+++@@@@@@@@@@@@@@@@++#+++#++++++++++#+++#++@@@@@@@@@@@@@@@@+++.",
".+++@@@@@@@@@@@@@@@@++#++#++++++++++++#++#++@@@@@@@@@@@@@@@@+++.",
".+++@@@@@@@@@@@@@@@@+#+++#++++++++++++#+++#+@@@@@@@@@@@@@@@@+++.",
".+++@@@@@@@@@@@@@@@@+#++#++++++++++++++#++#+@@@@@@@@@@@@@@@@+++.",
".+++@@@@@@@@@@@@@@@@+#++#++++++++++++++#++#+@@@@@@@@@@@@@@@@+++.",
".+++@@@@@@@@@@@@@@@@+#++#++++++++++++++#++#+@@@@@@@@@@@@@@@@+++.",
".+++@@@@@@@@@@@@@@@@+#++#++++++++++++++#++#+@@@@@@@@@@@@@@@@+++.",
".+++@@@@@@@@@@@@@@@@+#+++#++++++++++++#+++#+@@@@@@@@@@@@@@@@+++.",
".+++@@@@@@@@@@@@@@@@++#++#++++++++++++#++#++@@@@@@@@@@@@@@@@+++.",
".+++@@@@@@@@@@@@@@@@++#+++#++++++++++#+++#++@@@@@@@@@@@@@@@@+++.",
".++++++++++++++++++++++#+++#++++++++#+++#++++++++++++++++++++++.",
".++++++++++++++++++++++#++++##++++##++++#++++++++++++++++++++++.",
".+++++++++++++++++++++++#+++++####+++++#+++++++++++++++++++++++.",
" .+++++++++++++++++++++++##++++++++++##+++++++++++++++++++++++. ",
"  .++++++++++++++++++++++++##++++++##++++++++++++++++++++++++.  ",
"   ..................++++++++######++++++++..................   ",
"                     .++++++++++++++++++++.                     ",
"                     .++++++++++++++++++++.                     ",
"                     .+++++@@@@@@@@@@+++++.                     ",
"                     .+++++@@@@@@@@@@+++++.                     ",
"                     .+++++@@@@@@@@@@+++++.                     ",
"                     .+++++@@@@@@@@@@+++++.                     ",
"                     .+++++@@@@@@@@@@+++++.                     ",
"                     .+++++@@@@@@@@@@+++++.                     ",
"                     .+++++@@@@@@@@@@+++++.                     ",
"                     .+++++@@@@@@@@@@+++++.                     ",
"                     .+++++@@@@@@@@@@+++++.                     ",
"                     .+++++@@@@@@@@@@+++++.                     ",
"                     .+++++@@@@@@@@@@+++++.                     ",
"                     .+++++@@@@@@@@@@+++++.                     ",
"                     .+++++@@@@@@@@@@+++++.                     ",
"                     .+++++@@@@@@@@@@+++++.                     ",
"                     .+++++@@@@@@@@@@+++++.                     ",
"                     .+++++@@@@@@@@@@+++++.                     ",
"                      .++++++++++++++++++.                      ",
"                       .++++++++++++++++.                       ",
"                        ................                        "};
